<?xml version="1.0" encoding="UTF-8" standalone="no"?>
<!-- Created with Inkscape (http://www.inkscape.org/) -->

<svg
   width="1080"
   height="1080"
   viewBox="0 0 1080 1080"
   version="1.1"
   id="svg1"
   xml:space="preserve"
   inkscape:export-filename="logo.png"
   inkscape:export-xdpi="96"
   inkscape:export-ydpi="96"
   inkscape:version="1.3.2 (091e20e, 2023-11-25, custom)"
   sodipodi:docname="logo.svg"
   xmlns:inkscape="http://www.inkscape.org/namespaces/inkscape"
   xmlns:sodipodi="http://sodipodi.sourceforge.net/DTD/sodipodi-0.dtd"
   xmlns="http://www.w3.org/2000/svg"
   xmlns:svg="http://www.w3.org/2000/svg"><sodipodi:namedview
     id="namedview1"
     pagecolor="#505050"
     bordercolor="#eeeeee"
     borderopacity="1"
     inkscape:showpageshadow="0"
     inkscape:pageopacity="0"
     inkscape:pagecheckerboard="0"
     inkscape:deskcolor="#505050"
     inkscape:document-units="px"
     inkscape:zoom="0.508125"
     inkscape:cx="-27.552275"
     inkscape:cy="412.30012"
     inkscape:window-width="1920"
     inkscape:window-height="1009"
     inkscape:window-x="-8"
     inkscape:window-y="-8"
     inkscape:window-maximized="1"
     inkscape:current-layer="layer1" /><defs
     id="defs1"><inkscape:path-effect
       effect="powerstroke"
       id="path-effect15"
       is_visible="true"
       lpeversion="1.3"
       scale_width="1"
       interpolator_type="CentripetalCatmullRom"
       interpolator_beta="0.75"
       start_linecap_type="round"
       end_linecap_type="round"
       offset_points="15.853759,10.437"
       linejoin_type="spiro"
       miter_limit="4"
       not_jump="true"
       sort_points="true"
       message="既存のノードを &lt;b&gt;Ctrl + クリック&lt;/b&gt;して移動します" /><inkscape:path-effect
       effect="simplify"
       id="path-effect14"
       is_visible="true"
       lpeversion="1.3"
       threshold="0.012"
       steps="1"
       smooth_angles="0"
       helper_size="0"
       simplify_individual_paths="false"
       simplify_just_coalesce="false"
       step="1" /><inkscape:path-effect
       effect="powerstroke"
       id="path-effect13"
       is_visible="true"
       lpeversion="1.3"
       scale_width="1"
       interpolator_type="CentripetalCatmullRom"
       interpolator_beta="0.75"
       start_linecap_type="round"
       end_linecap_type="round"
       offset_points="11.983763,10.437"
       linejoin_type="spiro"
       miter_limit="4"
       not_jump="true"
       sort_points="true"
       message="既存のノードを &lt;b&gt;Ctrl + クリック&lt;/b&gt;して移動します" /><inkscape:path-effect
       effect="simplify"
       id="path-effect12"
       is_visible="true"
       lpeversion="1.3"
       threshold="0.012"
       steps="1"
       smooth_angles="0"
       helper_size="0"
       simplify_individual_paths="false"
       simplify_just_coalesce="false"
       step="1" /><inkscape:path-effect
       effect="powerstroke"
       id="path-effect11"
       is_visible="true"
       lpeversion="1.3"
       scale_width="1"
       interpolator_type="CentripetalCatmullRom"
       interpolator_beta="0.75"
       start_linecap_type="round"
       end_linecap_type="round"
       offset_points="37.85738,10.437"
       linejoin_type="spiro"
       miter_limit="4"
       not_jump="true"
       sort_points="true"
       message="既存のノードを &lt;b&gt;Ctrl + クリック&lt;/b&gt;して移動します" /><inkscape:path-effect
       effect="simplify"
       id="path-effect10"
       is_visible="true"
       lpeversion="1.3"
       threshold="0.012"
       steps="1"
       smooth_angles="0"
       helper_size="0"
       simplify_individual_paths="false"
       simplify_just_coalesce="false"
       step="1" /><inkscape:path-effect
       effect="powerstroke"
       id="path-effect9"
       is_visible="true"
       lpeversion="1.3"
       scale_width="1"
       interpolator_type="CentripetalCatmullRom"
       interpolator_beta="0.75"
       start_linecap_type="round"
       end_linecap_type="round"
       offset_points="12.430233,10.437"
       linejoin_type="spiro"
       miter_limit="4"
       not_jump="true"
       sort_points="true"
       message="既存のノードを &lt;b&gt;Ctrl + クリック&lt;/b&gt;して移動します" /><inkscape:path-effect
       effect="simplify"
       id="path-effect8"
       is_visible="true"
       lpeversion="1.3"
       threshold="0.012"
       steps="1"
       smooth_angles="0"
       helper_size="0"
       simplify_individual_paths="false"
       simplify_just_coalesce="false"
       step="1" /><inkscape:path-effect
       effect="powerstroke"
       id="path-effect7"
       is_visible="true"
       lpeversion="1.3"
       scale_width="1"
       interpolator_type="CentripetalCatmullRom"
       interpolator_beta="0.75"
       start_linecap_type="round"
       end_linecap_type="round"
       offset_points="9.4538795,10.437"
       linejoin_type="spiro"
       miter_limit="4"
       not_jump="true"
       sort_points="true"
       message="既存のノードを &lt;b&gt;Ctrl + クリック&lt;/b&gt;して移動します" /><inkscape:path-effect
       effect="simplify"
       id="path-effect6"
       is_visible="true"
       lpeversion="1.3"
       threshold="0.012"
       steps="1"
       smooth_angles="0"
       helper_size="0"
       simplify_individual_paths="false"
       simplify_just_coalesce="false"
       step="1" /><inkscape:path-effect
       effect="powerstroke"
       id="path-effect5"
       is_visible="true"
       lpeversion="1.3"
       scale_width="1"
       interpolator_type="CentripetalCatmullRom"
       interpolator_beta="0.75"
       start_linecap_type="round"
       end_linecap_type="round"
       offset_points="16.834839,10.437"
       linejoin_type="spiro"
       miter_limit="4"
       not_jump="true"
       sort_points="true"
       message="既存のノードを &lt;b&gt;Ctrl + クリック&lt;/b&gt;して移動します" /><inkscape:path-effect
       effect="simplify"
       id="path-effect4"
       is_visible="true"
       lpeversion="1.3"
       threshold="0.012"
       steps="1"
       smooth_angles="0"
       helper_size="0"
       simplify_individual_paths="false"
       simplify_just_coalesce="false"
       step="1" /></defs><g
     inkscape:label="Layer 1"
     inkscape:groupmode="layer"
     id="layer1"
     style="display:inline;opacity:1"><circle
       style="fill:#5f112b;stroke:none;stroke-width:5;stroke-dasharray:none;stroke-opacity:1;fill-opacity:1"
       id="path1"
       cx="540"
       cy="540"
       r="539.50012" /><rect
       style="display:inline;opacity:1;fill:#ffffff;fill-opacity:1;stroke:none;stroke-width:51.5392;stroke-dasharray:none;stroke-opacity:1"
       id="rect3"
       width="50"
       height="200"
       x="515"
       y="130"
       ry="0" /><rect
       style="fill:#a79c86;fill-opacity:1;stroke:#ffffff;stroke-width:50.2766;stroke-dasharray:none;stroke-opacity:1"
       id="rect1"
       width="589.72345"
       height="549.72351"
       x="245.13831"
       y="325.13831"
       ry="48.615002" /><circle
       style="fill:#ffffff;fill-opacity:1;stroke:none;stroke-width:5.28373;stroke-dasharray:none;stroke-opacity:1"
       id="path2"
       cx="540"
       cy="600"
       r="200" /><circle
       style="fill:#ffffff;fill-opacity:1;stroke:none;stroke-width:52.1631;stroke-dasharray:none;stroke-opacity:1"
       id="path3"
       cx="540"
       cy="90"
       r="60" /><ellipse
       style="fill:#ffffff;fill-opacity:1;stroke:none;stroke-width:43.6477;stroke-dasharray:none;stroke-opacity:1"
       id="path4"
       cx="540"
       cy="300"
       rx="100"
       ry="50" /><text
       xml:space="preserve"
       style="font-style:normal;font-variant:normal;font-weight:normal;font-stretch:normal;font-size:85.3333px;font-family:'Noto Sans';-inkscape-font-specification:'Noto Sans';fill:#000000;fill-opacity:1;stroke:none;stroke-width:50;stroke-dasharray:none;stroke-opacity:1"
       x="482.88522"
       y="608.12921"
       id="text4"><tspan
         sodipodi:role="line"
         id="tspan4"
         x="482.88522"
         y="608.12921" /></text><path
       d="m 416.76618,614.47377 c -0.0764,-1.29818 -0.0818,-2.69165 0.0617,-4.08106 0.0988,-0.95946 0.27284,-1.94398 0.55009,-2.91317 0.22202,-0.77818 0.52414,-1.59575 0.9266,-2.43516 0.40404,-0.84404 0.92537,-1.74911 1.59821,-2.73146 0.74396,-1.08646 1.6366,-2.22153 2.73688,-3.49442 1.07203,-1.2393 2.23482,-2.48975 3.57923,-3.8985 1.38109,-1.44586 2.86696,-2.96593 4.43172,-4.59205 0.75866,-0.78619 1.49885,-1.56591 2.24814,-2.35368 0.74705,-0.77191 1.60047,-1.55643 2.58286,-2.37708 1.16266,-0.9703 2.43482,-1.93073 3.82986,-2.90257 1.64563,-1.14547 3.39672,-2.26036 5.2625,-3.36368 1.98359,-1.17215 4.05359,-2.30515 6.21143,-3.40355 1.40161,-0.71299 2.83527,-1.40871 4.29675,-2.07925 0.002,-4.7e-4 0.004,-9.5e-4 0.006,-0.001 0.19979,-0.0468 0.52038,-0.10311 1.23559,-0.19357 0.51804,-0.0655 1.67218,-0.19579 2.68644,-0.36099 0.19247,-0.0313 0.39363,-0.0659 0.60189,-0.10412 0.006,-0.001 0.012,-0.002 0.018,-0.003 1.23677,-0.22932 2.40165,-0.52003 3.26497,-0.73022 0.93659,-0.22808 1.52279,-0.36359 2.0296,-0.44554 0.33804,-0.0547 0.50986,-0.0613 0.56381,-0.0613 0.009,0 0.0184,-10e-6 0.0276,-3e-5 -0.59173,0.001 -1.20494,-0.11371 -1.80782,-0.37611 -0.53322,-0.23447 -0.79989,-0.46804 -0.90436,-0.56664 -0.0755,-0.0712 0.0154,0.003 0.20025,0.28514 0.20847,0.32049 0.45129,0.76153 0.73188,1.38407 0.3449,0.76717 0.6765,1.65623 1.00792,2.70385 0.40732,1.29092 0.76932,2.68492 1.1089,4.21253 0.43015,1.93994 0.79466,3.9689 1.1277,6.12583 0.3758,2.43532 0.69106,4.92435 1.00604,7.57678 0.15426,1.29284 0.32811,2.80431 0.50778,4.23026 4.6e-4,0.004 9.2e-4,0.007 0.001,0.011 0.10096,0.79451 0.22369,1.73339 0.3806,2.70572 0.0999,0.62157 0.23195,1.34755 0.41405,2.12589 0.24643,1.08692 0.51622,2.27021 0.80765,3.46364 9.6e-4,0.004 0.002,0.008 0.003,0.0118 0.18739,0.76356 0.4204,1.68793 0.70591,2.654 0.25661,0.86643 0.61154,1.95257 1.12087,3.11273 l -0.009,-0.0199 c 0.39469,0.90416 0.81271,1.69025 1.15862,2.30777 0.32317,0.57665 0.69611,1.21036 0.91837,1.59466 0.003,0.004 0.005,0.009 0.008,0.0133 0.41574,0.71638 0.81828,1.42954 1.2052,2.14136 0.61933,1.13827 1.22645,2.31354 1.84068,3.54224 0.006,0.0126 0.0126,0.0251 0.0189,0.0376 0.51921,1.02823 1.08204,1.97655 1.65161,2.84492 0.002,0.003 0.004,0.006 0.006,0.009 0.77429,1.17773 1.64645,2.33573 2.62415,3.44714 0.92578,1.05061 2.00709,2.13054 3.27196,3.14658 1.05316,0.84465 2.31768,1.71387 3.80505,2.4551 1.3069,0.65095 2.86404,1.24026 4.63585,1.5727 1.55368,0.29263 3.22813,0.37479 4.94797,0.16504 1.47653,-0.17841 2.87999,-0.5614 4.16864,-1.08764 1.12506,-0.45737 2.45616,-1.10648 3.80101,-2.05357 1.07517,-0.75621 2.14946,-1.70097 3.11933,-2.85747 0.91671,-1.09165 1.62776,-2.23861 2.17357,-3.35804 0.64856,-1.32697 1.04331,-2.57291 1.29677,-3.48464 0.25985,-0.93751 0.46779,-1.8883 0.58439,-2.39888 9.6e-4,-0.004 0.002,-0.008 0.003,-0.0127 0.15639,-0.68875 0.27164,-1.15858 0.38755,-1.55251 0.003,-0.0115 0.007,-0.023 0.0101,-0.0346 0.044,-0.15141 0.18519,-0.56437 0.40859,-1.24875 0.6448,-1.95066 1.25492,-3.81666 1.88702,-5.68912 1.13879,-3.37772 2.30922,-6.66875 3.57531,-9.87701 1.1587,-2.93585 2.38526,-5.77914 3.72452,-8.51658 1.08824,-2.22266 2.23511,-4.34366 3.47176,-6.34792 1.034,-1.67453 2.10883,-3.23138 3.24597,-4.65759 0.99523,-1.24738 2.0085,-2.35615 3.0504,-3.31803 0.94257,-0.86986 1.8774,-1.58827 2.79905,-2.15574 0.80619,-0.49664 1.59728,-0.87254 2.35569,-1.134 0.69186,-0.23865 1.37852,-0.39203 2.0398,-0.46377 0.44769,-0.0455 0.69444,-0.009 0.76791,0.007 0.006,0.001 0.0126,0.003 0.0189,0.004 0.0357,0.008 0.072,0.0227 0.095,0.0364 0.005,0.003 0.0109,0.006 0.0164,0.01 0.0474,0.028 0.21301,0.13883 0.45704,0.40446 0.28218,0.30697 0.61774,0.75369 0.99719,1.40116 0.41057,0.7015 0.81109,1.53251 1.21159,2.52032 0.47492,1.17348 0.90375,2.45616 1.312,3.86729 0.51304,1.77687 0.96001,3.64461 1.38546,5.63111 0.7565,3.53687 1.34973,7.00317 2.0824,10.93356 0.37046,1.98253 0.7755,4.07957 1.25502,6.20468 0.361,1.59454 0.78416,3.30214 1.3178,5.05166 0.001,0.004 0.003,0.008 0.004,0.0123 0.43628,1.42405 0.99418,3.04336 1.75376,4.71069 l -0.009,-0.0201 c 0.38743,0.85523 0.80843,1.65974 1.24509,2.41288 0.65798,1.1414 1.39239,2.29708 2.21802,3.43902 0.71977,0.99385 1.55468,2.04271 2.53181,3.07725 0.002,0.003 0.005,0.005 0.007,0.008 0.79548,0.84051 1.77512,1.76769 2.95675,2.64429 0.003,0.002 0.006,0.004 0.009,0.006 0.95847,0.70952 2.17721,1.48001 3.6516,2.10277 1.27984,0.54057 2.82383,0.99689 4.57448,1.15127 1.59368,0.14242 3.23067,0.0172 4.82348,-0.39015 1.44435,-0.36862 2.71922,-0.93328 3.80686,-1.56851 1.62039,-0.94461 2.98011,-2.06877 4.09566,-3.19494 1.28097,-1.29323 2.29819,-2.64298 3.10998,-3.88973 0.95261,-1.46511 1.70853,-2.91837 2.32554,-4.25923 0.77964,-1.69742 1.40412,-3.36057 1.92723,-4.91153 0.71302,-2.11781 1.2917,-4.19341 1.7946,-6.11331 0.43038,-1.6425 0.81043,-3.1982 1.18286,-4.65646 0.25047,-0.97756 0.4725,-1.8182 0.70776,-2.60862 0.15751,-0.52643 0.28031,-0.89461 0.38979,-1.18004 0.24325,-0.61436 0.50933,-1.23698 0.79691,-1.87021 1.03398,-2.27378 2.27997,-4.49485 3.70162,-6.64353 1.53452,-2.31863 3.26211,-4.53658 5.14736,-6.64163 1.94316,-2.16894 4.03995,-4.2028 6.26134,-6.08741 1.18315,-1.00344 2.39543,-1.95905 3.63256,-2.86337 0.44604,-0.32401 0.91834,-0.6513 1.42183,-0.98893 0.7958,-0.53273 1.57568,-1.02579 2.34255,-1.47559 0.6118,-0.35821 1.1535,-0.65271 1.65057,-0.89501 0.34962,-0.16977 0.5769,-0.26494 0.72446,-0.31936 0.0952,-0.0341 0.0264,-1.2e-4 -0.21863,0.0508 -0.009,0.002 -0.0187,0.004 -0.028,0.006 -0.13144,0.0269 -0.6478,0.12793 -1.38376,0.11491 -0.0108,-1.9e-4 -0.0215,-4e-4 -0.0323,-6.2e-4 -0.69884,-0.0145 -0.91605,-0.0771 -0.67832,-0.0424 l -0.10124,-0.0153 c -0.30614,-0.0477 -0.56797,-0.13343 -0.78872,-0.23574 -0.24168,-0.11285 -0.32254,-0.1896 -0.31174,-0.18046 0.0395,0.0334 0.17614,0.15892 0.40209,0.44697 0.26099,0.33313 0.55769,0.77662 0.89588,1.36735 0.42815,0.74896 0.84978,1.60776 1.29377,2.60858 0.49968,1.12651 0.97271,2.3142 1.51407,3.68416 0.31114,0.7854 0.67979,1.72307 1.08171,2.66714 0.004,0.009 0.008,0.0181 0.0116,0.0272 0.28426,0.66247 0.56293,1.36714 0.88909,2.20068 0.60465,1.55057 1.01291,2.62396 1.61802,4.17566 1.14695,2.93902 2.35738,5.91388 3.69793,8.87822 1.10294,2.43819 2.29481,4.87827 3.62366,7.28586 1.08776,1.96854 2.28084,3.9423 3.62545,5.87406 1.10282,1.58233 2.33203,3.1734 3.73038,4.70534 1.21298,1.32717 2.59233,2.654 4.17517,3.87486 1.44207,1.11139 3.09418,2.16531 4.96704,3.01416 1.85849,0.8438 3.90723,1.46547 6.08171,1.74275 2.32955,0.29931 4.60696,0.17544 6.71986,-0.25845 l -0.0262,0.005 c 1.61949,-0.32825 3.06243,-0.82261 4.2908,-1.34201 1.65783,-0.69928 3.10623,-1.51531 4.31574,-2.28308 1.50897,-0.95775 2.84709,-1.96952 3.86799,-2.76091 1.68197,-1.30401 2.4564,-1.95459 3.58066,-2.75759 0.56192,-0.40125 1.00961,-0.68823 1.38755,-0.90419 a 10.437,10.437 90 0 0 -10.35636,-18.12374 c -1.12558,0.64319 -2.17316,1.33455 -3.16254,2.04105 -1.56608,1.11856 -3.10434,2.36788 -4.2386,3.24726 -0.88114,0.68305 -1.6005,1.21278 -2.26507,1.63458 -0.50803,0.32249 -0.91663,0.53647 -1.24328,0.67414 -0.005,0.002 -0.01,0.004 -0.0143,0.006 -0.20537,0.0869 -0.32248,0.11314 -0.30913,0.11044 l -0.0262,0.005 c 0.011,-0.002 0.0349,-0.0106 0.12784,5.5e-4 0.0641,0.009 0.0245,0.0127 -0.10716,-0.0471 -0.17022,-0.0771 -0.45085,-0.23204 -0.84486,-0.5357 -0.4377,-0.33761 -0.93775,-0.79727 -1.5081,-1.42131 -0.65327,-0.71569 -1.3189,-1.56043 -2.01421,-2.55806 -0.84367,-1.21208 -1.66156,-2.55121 -2.4815,-4.03504 -0.99791,-1.80801 -1.94401,-3.73381 -2.87723,-5.79682 -1.13,-2.49877 -2.1924,-5.10002 -3.27332,-7.86983 -0.49193,-1.25861 -1.12639,-2.91785 -1.61632,-4.17131 -0.001,-0.004 -0.003,-0.007 -0.004,-0.0111 -0.32211,-0.82321 -0.71015,-1.81102 -1.14105,-2.81608 -0.27395,-0.64407 -0.53353,-1.30243 -0.87253,-2.15814 -0.52308,-1.32371 -1.14434,-2.89332 -1.8431,-4.46864 -0.62239,-1.40295 -1.36102,-2.94402 -2.25608,-4.50972 -0.69977,-1.2223 -1.54682,-2.55305 -2.58666,-3.88029 -0.8889,-1.13321 -1.98851,-2.35434 -3.34477,-3.50212 -1.20385,-1.01894 -2.6604,-2.01916 -4.37708,-2.81617 -1.48263,-0.68922 -3.09577,-1.19483 -4.7954,-1.45953 -0.0337,-0.005 -0.0675,-0.0103 -0.10124,-0.0153 -0.0314,-0.005 -0.91808,-0.15083 -1.89761,-0.17119 -0.0108,-2.2e-4 -0.0215,-4.3e-4 -0.0323,-6.2e-4 -1.33616,-0.0236 -2.45214,0.15841 -3.17704,0.307 -0.009,0.002 -0.0187,0.004 -0.028,0.006 -1.06912,0.2222 -1.98341,0.52077 -2.66785,0.76937 -0.006,0.002 -0.0118,0.004 -0.0176,0.006 -1.02007,0.37259 -1.93041,0.78354 -2.69587,1.15522 -0.004,0.002 -0.007,0.004 -0.011,0.005 -1.1078,0.53951 -2.13536,1.1076 -3.07033,1.65503 -1.18615,0.69571 -2.31905,1.41489 -3.40757,2.14359 -0.67885,0.45522 -1.37775,0.93798 -2.0868,1.45342 -0.007,0.005 -0.0137,0.01 -0.0205,0.015 -1.65293,1.20774 -3.26425,2.47811 -4.83098,3.80687 -2.92971,2.48554 -5.71159,5.18165 -8.30692,8.07852 -2.51756,2.81109 -4.87505,5.8288 -7.00675,9.04975 -1.9752,2.98531 -3.76879,6.16481 -5.29756,9.52667 -0.42236,0.93002 -0.83267,1.88804 -1.22292,2.87665 -0.008,0.0202 -0.0159,0.0404 -0.0237,0.0606 -0.39337,1.015 -0.69753,1.97395 -0.93629,2.77195 -0.001,0.004 -0.003,0.008 -0.004,0.0126 -0.35697,1.19857 -0.66179,2.36539 -0.9269,3.4001 -0.40961,1.60385 -0.78017,3.11823 -1.15256,4.53941 -0.44911,1.71456 -0.88996,3.27281 -1.38311,4.73756 -0.36178,1.07262 -0.72514,2.01611 -1.11194,2.85824 -0.30681,0.66674 -0.59092,1.18623 -0.85617,1.59419 -0.22402,0.34404 -0.3775,0.51725 -0.44368,0.58406 -0.0364,0.0367 0.0118,-0.0263 0.21443,-0.14443 0.3775,-0.22048 0.89492,-0.45989 1.5462,-0.62666 0.72618,-0.18626 1.46776,-0.24167 2.18767,-0.17781 0.76068,0.0683 1.33653,0.25711 1.7033,0.41203 0.41462,0.17513 0.60817,0.321 0.646,0.34901 0.003,0.002 0.006,0.004 0.009,0.006 0.0391,0.029 -0.0503,-0.0357 -0.22944,-0.22454 -0.22168,-0.23512 -0.483,-0.55007 -0.79231,-0.97717 -0.34944,-0.48331 -0.70016,-1.02892 -1.04931,-1.63515 -0.006,-0.0107 -0.0124,-0.0214 -0.0186,-0.0321 -0.12347,-0.21263 -0.21891,-0.39935 -0.29228,-0.5613 -0.003,-0.007 -0.006,-0.0134 -0.009,-0.0201 -0.25461,-0.55887 -0.50919,-1.25196 -0.78919,-2.1653 -0.33073,-1.08501 -0.62637,-2.25435 -0.92136,-3.55732 -0.39016,-1.72914 -0.73821,-3.51905 -1.09577,-5.43254 -0.66038,-3.54266 -1.3564,-7.57361 -2.19036,-11.47257 -0.48795,-2.27836 -1.04954,-4.65323 -1.7439,-7.05811 -0.5507,-1.90353 -1.20363,-3.89561 -2.01829,-5.90854 -0.6821,-1.68238 -1.50826,-3.4588 -2.54634,-5.23244 -0.95359,-1.62718 -2.13954,-3.34445 -3.63978,-4.97643 -1.41195,-1.53693 -3.1367,-3.02598 -5.19795,-4.24544 -1.96716,-1.16747 -4.12114,-2.00875 -6.35331,-2.48857 -2.59301,-0.55993 -5.10017,-0.59773 -7.34907,-0.36341 -0.009,9.2e-4 -0.0176,0.002 -0.0264,0.003 -2.2981,0.24537 -4.52769,0.75808 -6.64297,1.48772 -2.34224,0.80749 -4.51581,1.87351 -6.49691,3.09393 -2.23727,1.3775 -4.23635,2.95315 -6.01083,4.59076 -1.95256,1.80258 -3.67749,3.71825 -5.21143,5.64082 -1.75259,2.19812 -3.30124,4.46094 -4.68967,6.70947 -1.66177,2.69325 -3.13161,5.42678 -4.45791,8.13568 -1.63383,3.33953 -3.07928,6.70324 -4.39225,10.02997 -1.43853,3.64523 -2.73201,7.29174 -3.93748,10.86727 -0.66089,1.95772 -1.31481,3.95693 -1.93366,5.82894 -0.004,0.0129 -0.008,0.0258 -0.0127,0.0387 -0.0649,0.19893 -0.393,1.1557 -0.61035,1.901 -0.30416,1.03377 -0.53689,2.0287 -0.71216,2.80047 -0.17809,0.77988 -0.25155,1.11475 -0.34636,1.4568 -0.0702,0.25234 -0.063,0.15923 0.0585,-0.0892 0.11448,-0.23481 0.30259,-0.55415 0.59491,-0.90319 0.30826,-0.3666 0.61117,-0.62179 0.85662,-0.79443 0.28128,-0.19809 0.41095,-0.23752 0.35197,-0.21355 -0.0136,0.006 -0.0272,0.0111 -0.0408,0.0167 0.33538,-0.13792 0.74004,-0.25506 1.21177,-0.31288 0.536,-0.0657 1.01929,-0.0353 1.42635,0.0409 0.43852,0.0827 0.71437,0.20665 0.81953,0.25903 0.11074,0.0552 0.0944,0.0634 -0.0475,-0.0504 -0.16202,-0.13016 -0.38879,-0.34121 -0.67107,-0.66155 -0.28845,-0.3279 -0.57394,-0.70254 -0.84597,-1.11588 -0.20035,-0.30545 -0.35107,-0.56717 -0.46278,-0.78693 -0.68794,-1.37564 -1.40492,-2.76576 -2.16203,-4.15726 -0.49025,-0.90193 -0.98858,-1.78398 -1.48497,-2.63946 -0.35022,-0.60546 -0.54292,-0.92885 -0.77365,-1.34055 -0.15515,-0.27696 -0.22773,-0.43136 -0.2384,-0.4558 -0.003,-0.007 -0.006,-0.0133 -0.009,-0.0199 -0.0281,-0.064 -0.0992,-0.24334 -0.21774,-0.64371 -0.14169,-0.47944 -0.28146,-1.02132 -0.4484,-1.7014 -0.24886,-1.01939 -0.48697,-2.06247 -0.7359,-3.1606 -0.007,-0.0303 -0.0139,-0.0607 -0.0211,-0.0909 -0.0385,-0.16314 -0.0825,-0.38523 -0.13314,-0.70002 -0.0985,-0.61019 -0.18465,-1.25577 -0.28078,-2.01204 -0.16817,-1.335 -0.3209,-2.66809 -0.48967,-4.08259 -0.32371,-2.72595 -0.67252,-5.49758 -1.10403,-8.29389 -0.38089,-2.46682 -0.82408,-4.96049 -1.37955,-7.46559 -0.43643,-1.96333 -0.94742,-3.96415 -1.58252,-5.97694 -0.51144,-1.61669 -1.11833,-3.29444 -1.87776,-4.98364 -0.61035,-1.35418 -1.34998,-2.78881 -2.28269,-4.21962 -0.002,-0.003 -0.004,-0.006 -0.006,-0.009 -0.85057,-1.30177 -1.94065,-2.72218 -3.35126,-4.05334 -1.33469,-1.25953 -3.01336,-2.48381 -5.05552,-3.37581 -2.14767,-0.94098 -4.41233,-1.37938 -6.6107,-1.37391 l 0.0276,-3e-5 c -1.47641,-2.3e-4 -2.80752,0.15243 -3.89938,0.32901 -1.43306,0.23173 -2.78123,0.56234 -3.63582,0.77046 -1.02703,0.25005 -1.57676,0.3841 -2.12235,0.48565 -0.0539,0.01 -0.11344,0.0201 -0.1795,0.0309 -0.52493,0.0855 -0.95309,0.12838 -1.95037,0.25452 -0.85838,0.10858 -2.0708,0.27258 -3.37864,0.57911 -1.12528,0.26365 -2.40401,0.65159 -3.73087,1.253 -0.01,0.004 -0.0192,0.009 -0.0289,0.0131 -1.79856,0.82181 -3.54862,1.66995 -5.24745,2.53414 -2.52199,1.28376 -4.97748,2.62628 -7.36684,4.03821 -2.24385,1.32688 -4.43648,2.71871 -6.56879,4.20295 -1.80301,1.25604 -3.56983,2.5823 -5.27993,4.00946 -1.45388,1.21451 -2.88212,2.51384 -4.24791,3.92893 -0.0176,0.0182 -0.0351,0.0365 -0.0525,0.0548 -0.78311,0.82327 -1.46948,1.54641 -2.178,2.28064 -0.003,0.004 -0.007,0.007 -0.0104,0.0107 -1.4871,1.54547 -2.99785,3.0907 -4.49305,4.65601 -1.43824,1.50708 -2.86991,3.04006 -4.27106,4.65982 -1.45251,1.68038 -2.86405,3.44638 -4.16973,5.35316 -1.20802,1.76369 -2.28593,3.59575 -3.20106,5.50751 -0.923,1.92509 -1.63816,3.84727 -2.17241,5.71983 -0.66289,2.31731 -1.03936,4.5284 -1.24299,6.50624 -0.29004,2.80896 -0.25761,5.37835 -0.1357,7.44885 a 10.437,10.437 90 0 0 20.83792,-1.22692 z"
       id="path-1"
       inkscape:path-effect="#path-effect14;#path-effect15"
       inkscape:original-d="m 406.34722,615.08723 c -0.92071,-15.63188 7.20685,-21.85276 18.7866,-34.0942 6.51493,-6.88721 17.91876,-13.12168 25.7446,-16.69921 2.15115,-0.98338 4.63451,-0.94903 6.958,-1.3916 2.5473,-0.48519 5.06071,-1.3916 7.6538,-1.3916 11.56027,0 12.40855,31.59317 13.916,38.26901 2.32908,10.31451 1.6875,6.1582 6.958,16.6992 1.7816,3.5632 6.66731,9.71831 11.8286,7.6538 4.7414,-1.89656 4.07694,-5.27282 5.5664,-9.7412 4.83745,-14.51235 14.65138,-47.41246 34.79,-50.09761 20.26528,-2.70203 17.48763,35.8051 24.353,48.01021 1.38329,2.45916 5.84073,9.63916 10.43701,6.958 7.16876,-4.18178 8.67466,-19.59927 11.1328,-25.7446 4.53832,-11.3458 13.23926,-21.39824 22.9614,-28.52781 1.973,-1.44687 8.4244,-5.83723 11.1328,-5.5664 7.13013,0.71302 10.19434,11.26241 12.5244,16.69921 3.76513,8.78531 13.51631,40.77373 29.2236,34.79 4.68878,-1.7862 8.168,-5.86023 12.5244,-8.3496"
       style="fill:#000000;fill-opacity:1;fill-rule:nonzero;stroke:none;stroke-width:50;stroke-dasharray:none;stroke-opacity:1" /></g></svg>
